<?xml version="1.0" encoding="utf-8"?>
<!-- Generator: Adobe Illustrator 25.2.0, SVG Export Plug-In . SVG Version: 6.00 Build 0)  -->
<svg version="1.1" id="Layer_1" xmlns="http://www.w3.org/2000/svg" xmlns:xlink="http://www.w3.org/1999/xlink" x="0px" y="0px"
	 viewBox="0 0 465.7 470.6" style="enable-background:new 0 0 465.7 470.6;" xml:space="preserve">
<style type="text/css">
	.st0{fill-rule:evenodd;clip-rule:evenodd;fill:#FBFDFF;}
	.st1{fill-rule:evenodd;clip-rule:evenodd;fill:#367697;}
</style>
<rect x="43" y="43" class="st0" width="385" height="385"/>
<path class="st1" d="M53.1,389.5V81.1c0-5.8,2.6-12.7,6.3-16.7c0.6-0.6,1.1-1.1,1.7-1.7c4.2-4.2,10.7-7.2,19.1-7.2h305.3
	c8.4,0,14.9,3,19.1,7.3c0.6,0.6,1,1,1.6,1.6c0.5,0.6,1,1.2,1.5,1.9c3.2,4.4,4.9,9.6,4.9,15v308.3c0,3.5-0.8,7-2.2,10.2
	c-4,8.6-12.4,15.2-22.5,15.2H77.3c-7.7,0-15.4-4.9-19.8-11.2C54.7,399.5,53.2,394.6,53.1,389.5z M178.6,470.6c0.8,0,1.6-0.2,2.4-0.5
	c0.5-0.3,0.9-0.9,1-1.4v-23.5h26.4v23.3c0,1.5,1.4,2.2,2.9,2.2h7.7c1.5,0.2,2.9-0.9,3.1-2.4c0-0.2,0-0.5,0-0.7v-22.3h25.4v23
	c0,1.8,1.5,2.4,3.4,2.4h7.4c1.7,0,2.9-0.8,2.9-2.4v-23h26.4v23.3c0,1.5,1.4,2.2,2.9,2.2h7.7c1.5,0.2,2.9-0.9,3.1-2.4
	c0-0.2,0-0.5,0-0.7v-22.3h25.4v23c0,1.8,1.5,2.4,3.4,2.4h7c1.8,0,3.4-0.6,3.4-2.4v-23h68.6c14.3,0,25.7-8.6,31.8-19.5
	c2.7-4.9,4.2-10.4,4.4-16v-69.4h17.8c1.5,0,2.6-0.7,2.6-2.2v-9.8c0-0.8-1.2-1.7-2.2-1.7h-18.3V301H464c0.8-0.2,1.5-0.8,1.7-1.7v-9.8
	c0-1.5-1.1-2.2-2.6-2.2h-17.8v-26.2H463c1.5,0,2.6-0.7,2.6-2.2v-9.8c0-0.8-1.2-1.7-2.2-1.7h-18.2v-25.7H464c0.8-0.2,1.5-0.8,1.7-1.7
	v-9.8c-0.1-1.3-1.1-2.2-2.4-2.2h-18v-26.2h18.2c1.2,0,2.2-1,2.2-2.2l0,0v-9.8c0-0.8-1.2-1.7-2.2-1.7h-18.2v-25.7h18.5
	c1,0.1,1.9-0.7,1.9-1.7c0-0.1,0-0.2,0-0.2V131c0-1.5-1.4-2.2-2.9-2.2h-17.5V59.5c0-9.7-5-18.8-11.5-25.3l-2.5-2.1
	c-2.6-2.1-5.5-3.8-8.6-5.1c-4.1-2-10.6-3-15.4-3h-67V2.2c-0.1-1.3-1.1-2.2-2.4-2.2h-8.9c-1.3,0-2.4,1-2.4,2.3c0,0,0,0,0,0.1V24
	h-25.4V3.4c0-1.8-0.6-3.4-2.4-3.4h-9.1c-1.2,0-2.2,1-2.2,2.2V24h-26.4V2.2c0-1.5-1.1-2.2-2.6-2.2h-8.6c-1.3,0-2.4,1-2.4,2.3
	c0,0,0,0,0,0.1V24h-25.4V2.9c0-1.5-0.9-2.9-2.4-2.9h-9.1c-1.2,0-2.2,1-2.2,2.2V24H182V2.2c0-1.5-1.1-2.2-2.6-2.2h-8.6
	c-1.3,0-2.4,1-2.4,2.3c0,0,0,0,0,0.1V24h-25.4V2.9c0-1.5-0.9-2.9-2.4-2.9h-9.1c-1.2,0-2.2,1-2.2,2.2V24h-67c-5.2,0-10.4,1-15.3,3
	c-3.1,1.3-6,3-8.6,5.1c-3.4,2.7-6.3,6-8.6,9.7c-0.3,0.6-0.5,0.8-0.8,1.4c-2.9,4.9-4.5,10.5-4.6,16.2v69.6H2.9
	c-1.5,0-2.9,0.6-2.9,2.2c0,12.5-1,11.5,4.8,11.5h16.8c1.2,0,2.6-0.4,2.6,0.7v25H2.2c-0.9,0-2.2,0.9-2.2,1.7v9.8c0,1.2,1,2.2,2.2,2.2
	c0,0,0,0,0,0h22.1v26.1H2.5c-1.3-0.1-2.3,0.9-2.4,2.2v9.8c0.2,0.8,0.8,1.5,1.7,1.7h22.6v25.7H2.2c-0.9,0-2.2,0.9-2.2,1.7v9.8
	c0,1.5,1.1,2.2,2.6,2.2h21.6v26.1H2.7c-1.5,0-2.6,0.7-2.6,2.2v9.8c0.2,0.8,0.8,1.5,1.7,1.7h22.6v25.7H2.2c-0.9,0-2.2,0.9-2.2,1.7
	v9.8c0,1.5,1.1,2.2,2.6,2.2h21.6v70.1c0,4.8,2,10.8,3.7,14.1c3,6.2,9.1,12.9,15,15.9c5.2,2.7,10.5,4.8,17.5,4.8h68.6v23.3
	c0,1.5,1.4,2.2,2.9,2.2h7.7c1.5,0.2,2.9-0.8,3.2-2.3c0-0.3,0-0.6,0-0.9v-22.3h25.4v22.6c0,2.1,1.2,2.9,3.4,2.9L178.6,470.6z"/>
<path class="st1" d="M236,362.2c0-11.3,13.8-16.4,21.1-9.1c3.1,3.1,3.9,5,3.9,9.8c0,10.1-13.3,16.1-21.4,8
	C237.3,368.5,236,365.4,236,362.2L236,362.2z M95.1,319.5c0-4.4,0.2-6.9,2.2-10.8c1.1-2.3,2.7-4.3,4.5-6.1c11-11,29.1-6.2,34.9,6.1
	c4.7,10,1.8,21-7.2,27.6c-7.3,5.4-18.5,5.2-26-0.7C99.3,332.2,95.1,326.4,95.1,319.5L95.1,319.5z M326.9,288c0-5.9,1-9.1,4-13.7
	c6.3-9.5,21.3-12.5,31.3-4.5c8,6.3,10.7,17.3,6.4,26.6c-2.3,4.9-6.1,8.2-10.8,10.6c-7.8,3.9-18.2,1.8-24.2-4.2
	c-0.9-0.9-1.7-1.8-2.5-2.8C328.5,296.5,327.1,292.3,326.9,288L326.9,288z M204.8,235.2c0-5.6,0.3-8.8,2.8-13.8
	c0.7-1.5,1.5-2.9,2.5-4.2c5-7,14.5-12,22.8-11.8l3.1,0.2c1,0.1,1.9,0.3,2.9,0.5c1.8,0.4,3.6,1,5.3,1.7c4,1.6,5.6,3.5,8.2,5.5
	c1.7,1.3,4.8,5.8,5.8,7.9c7.1,14.8,0.1,32.2-13.4,38.1C223.6,268.4,204.8,251.7,204.8,235.2L204.8,235.2z M104.5,162.5
	c0-3.7,1.1-7.6,3.9-10c4.5-3.9,10.7-4.5,15.6-1.1c0.3,0.2,0.6,0.4,0.8,0.6c1.5,1.1,2.6,2.6,3.4,4.3c1.5,3.2,1.6,7,0.2,10.3
	c-0.3,0.7-0.7,1.4-1.1,2c-0.8,1.3-1.8,2.3-3.1,3.2c-4.8,3.7-10.9,3-15.8-0.8C106.2,168.7,104.7,165.7,104.5,162.5L104.5,162.5z
	 M273.7,133.5c-10.2,0-18.7-8.6-18.7-17.3c0-5.6,0.5-9.2,4.4-13.6c1.6-2,3.6-3.6,5.9-4.7c8.8-4.3,18.5-1.3,24,6.4
	c4.5,6.2,3.9,14.9-0.2,21.1C285.5,130.4,279.8,133.4,273.7,133.5L273.7,133.5z M242.2,114.5c-0.2,9.8,4.4,19.1,12.2,25
	c1,0.8,2.1,1.4,3.2,2.1c-0.5,2.2-1.2,4.4-2.1,6.6c-2.5,6.4-4.1,12.9-6.6,19.3c-0.8,2.1-1.5,4.3-2.2,6.5s-1.5,4.1-2.2,6.4
	c-1.5,4.4-3.4,8.6-4.4,13.1c-2.6,0-5.4-0.5-8.2-0.5c-6.1,0.1-12.1,1.6-17.4,4.4c-2.4,1.2-4.7,2.6-6.8,4.3c-2.1,1.5-4,3.4-5.6,5.5
	c-3.9-2.1-7.6-4.8-11.4-7l-22.8-14.2c-0.7-0.5-1.2-0.7-1.9-1.2l-5.8-3.6c-0.8-0.5-1.2-0.8-1.9-1.2l-9.6-6c-1.3-0.9-2.5-1.6-3.8-2.4
	s-2.6-1.7-3.9-2.4c0.2-1.9,0.8-3.2,1-6.2c0.1-2.1,0-4.3-0.4-6.3c-1.4-7.7-6.1-13.1-12.4-16.9c-10.8-6.6-25.6-2.6-32.8,7.6
	c-0.9,1.3-1.6,2.6-2.2,4c-2.9,6-3.2,14.2-0.2,20.2c0.7,1.4,1.4,2.7,2.2,4c0.4,0.6,0.8,1.2,1.3,1.8c5.5,6.1,11.4,9.3,20.2,9.3
	c5.4-0.2,10.7-2.1,14.9-5.5c2.4-2.1,2.3-1,5.6,1l7.6,4.7c0.6,0.4,1.2,0.8,1.9,1.2l9.5,5.9c10.3,6.8,23.4,14.5,34.2,21.3
	c1.3,0.8,2.6,1.7,3.9,2.4c-0.1,1.3-1.8,5.4-2.2,7.4c-1.2,6.2-1.1,12.7,0.4,18.8c0.4,1.5,0.8,2.9,1.4,4.4c0.5,1.4,1.1,2.8,1.8,4.2
	c-1.3,0.3-2.5,1.7-3.6,2.5c-5.3,3.6-10.5,7.6-15.7,11.4c-0.6,0.5-1.1,0.9-1.8,1.3c-1.3,0.9-2.3,1.6-3.5,2.5l-3.6,2.6
	c-2.3,1.7-4.6,3.4-6.9,5.1c-1.1,0.9-2.2,1.7-3.5,2.5l-17.7,12.9c-1.2-1.8-6.7-5.3-9-6.3c-6.3-2.7-9.7-3-16.6-3s-13,3-18.2,6.5
	c-1.6,1.2-3.1,2.5-4.4,4c-16.2,16.2-12,44.1,10.2,55.2c4.7,2.1,9.8,3.2,15,3.2c12.7,0,21.6-6.5,27.8-14.7c6.4-8.5,8.1-21.4,4.3-31.3
	c-0.5-1.1-1-2.3-1.3-3.5c1.2-0.8,2.2-1.7,3.5-2.5l41.9-30.6c1.1-0.9,2.2-1.7,3.5-2.5l7.1-5.1c0.9,0.6,1.5,1.5,2.4,2.2
	c4.5,3.7,9.7,6.5,15.4,8.2c3.1,0.9,6.4,1.3,9.6,1.4c0.1,2.6,0.7,5.3,1,7.9l5.9,48.5c0.2,1.4,0.4,2.8,0.5,4c0.1,1.5,0.4,2.8,0.5,4.1
	c-3.8,0.9-8.4,5.1-10.7,8s-5.1,8.8-5.1,13.9c0,4.8,0.5,8.5,2.5,12.4c6.1,12.5,21.1,17.7,33.6,11.6c1.1-0.5,2.1-1.1,3.1-1.8l6.3-6.2
	c0.9-1.3,1.6-2.6,2.3-4c7.4-14.6-2.6-32-17.5-35.1c-1.7-0.4-1.8,0.3-2.1-1.5l-1.2-10c-1.1-9-2.2-17.6-3.2-26.5
	c-0.3-2.9-3-25.9-3.3-26.7c4.8-1.3,9.3-3.4,13.2-6.4c1.8-1.4,3.6-3,5.2-4.7l4.6-5.5c1,0.4,2,0.8,3,1.3c1.2,0.5,1.8,0.9,3,1.4
	l6.1,2.8c4,1.6,8,3.9,12,5.5c5.7,2.3,12.4,6,18.1,8.3c1.8,0.8,4.4,2.3,6.1,2.7c-0.1,1.4-0.3,2.8-0.6,4.2c-0.9,6.1,0.6,13.2,2.6,18.1
	c1.6,3.7,3.8,7.1,6.7,10l4.3,3.9c1.6,1.2,3.4,2.3,5.2,3.2c11.9,5.9,25.3,4.3,35.9-3.1c0.8-0.6,1.5-1.2,2.2-1.8
	c2.2-2,4.2-4.2,5.9-6.6c10.7-15.8,6.5-37.3-9.3-47.9c-10.9-7.3-25-7.9-36.4-1.4c-2.2,1.3-4.2,2.8-6.1,4.4c-2,1.6-3.6,3.5-4.9,5.7
	c-0.5-0.3-0.9-0.4-1.5-0.6c-5.6-2.4-11-5.1-16.6-7.7l-21.2-9.8c-1.2-0.5-2-1-3.1-1.4l-6.1-2.8c0-1.8,0.7-3.3,1-5
	c1.6-11.9-1.8-21.9-7.6-30.3c-1.4-2.1-3.2-4-5.1-5.7c-2.2-1.7-5.9-5.3-8.7-6c0.6-2.5,12.1-35.3,13.4-39c1-3.1,3.8-10.5,4.4-13.1
	c1.9,0.3,3.8,0.4,5.8,0.2c6.8-0.3,13.3-2.8,18.4-7.3c3.8-3.6,5.6-5.5,8.1-10.4c4.1-8.6,4.1-18.6,0-27.3
	c-7.9-15.7-26.6-22.1-41.4-14.8c-3.4,1.6-6.5,3.8-9.2,6.4c-1.9,2-3.6,4.2-5,6.6C243.6,103.7,242.1,109.1,242.2,114.5L242.2,114.5z"
	/>
</svg>
